# xmcd CD database file
#
# Track frame offsets:
#	150
#	15625
#	28513
#	41875
#	55388
#	73088
#	90400
#	102300
#	112413
#	125138
#	139838
#	157300
#	167100
#	183000
#	196250
#	210413
#	220850
#	235425
#
# Disc length: 3355 seconds
#
# Revision: 0
# Processed by: cddbd v1.5.2PL0 Copyright (c) Steve Scherf et al.
# Submitted via: CDex 1.70beta2
#
DISCID=0f0d1912
DTITLE=Various Artist - Kiwi Country Girls
DYEAR=1993
DGENRE=Country
TTITLE0=Suzanne Prentice - You Needed Me
TTITLE1=Celine Toner - Texas When I Die
TTITLE2=Jodi Vaughan - When I Dream
TTITLE3=Tracey Gardyne - River Road
TTITLE4=Lynne Toner - Coat of Many Colours
TTITLE5=Christine Smith - Leaving On A Jet plane
TTITLE6=Dawn Garmson - New Zealand Need A Country Hall Of Fame
TTITLE7=Patricia Lennon - Silver threads And Golden Needles
TTITLE8=Tracey Ryder - D I V O R C E
TTITLE9=Suzanne Prentice - one Day At A Time
TTITLE10=Celine Toner - Angel Of The Morning
TTITLE11=Jodi Vaughan - Blue Ridge Mountains
TTITLE12=Tracey Gardyne - Could I Have This Dance
TTITLE13=Lynne Toner - sad Movies
TTITLE14=Christine Smith - Banks Of the Ohio
TTITLE15=Averill Charteris - Truck Drivin' Woman
TTITLE16=Patricia Lennon - Nobody's Child
TTITLE17=Tracey ryder - I Honestly Love You
EXTD=YEAR: 1993
EXTT0=
EXTT1=
EXTT2=
EXTT3=
EXTT4=
EXTT5=
EXTT6=
EXTT7=
EXTT8=
EXTT9=
EXTT10=
EXTT11=
EXTT12=
EXTT13=
EXTT14=
EXTT15=
EXTT16=
EXTT17=
PLAYORDER=
